<svg xmlns="http://www.w3.org/2000/svg" xmlns:svg="http://www.w3.org/2000/svg" id="svg957" width="69.623" height="69.624" version="1.1" viewBox="0 0 40092 40092" xml:space="preserve" style="shape-rendering:geometricPrecision;text-rendering:geometricPrecision;image-rendering:optimizeQuality;fill-rule:evenodd;clip-rule:evenodd"><metadata id="metadata961"/><defs id="defs951"><style id="style949" type="text/css">.fil0{fill:#43b581}</style></defs><g id="Camada_x0020_1" transform="rotate(15,20046.109,20046.26)"><metadata id="CorelCorpID_0Corel-Layer"/><path id="path954" d="M 30067,2689 C 39654,8223 42938,20481 37403,30067 31869,39654 19611,42938 10025,37404 439,31869 -2846,19611 2689,10025 8223,439 20481,-2846 30067,2689 Z m -8804,15249 c 1165,672 1564,2161 891,3325 -672,1165 -2161,1564 -3325,892 -1165,-673 -1563,-2162 -891,-3326 672,-1165 2161,-1563 3325,-891 z M 28789,4902 26019,23494 11303,35190 14073,16598 Z" class="fil0"/></g></svg>