<svg xmlns="http://www.w3.org/2000/svg" xmlns:svg="http://www.w3.org/2000/svg" id="svg8" width="50mm" height="50mm" version="1.1" viewBox="0 0 50 50"><defs id="defs2"><marker style="overflow:visible" id="marker1193" orient="auto" refX="0" refY="0"><path style="fill-rule:evenodd;stroke:#000;stroke-width:1pt" id="path1191" d="M 0.0,0.0 L 5.0,-5.0 L -12.5,0.0 L 5.0,5.0 L 0.0,0.0 z" transform="scale(0.8) translate(12.5,0)"/></marker><marker style="overflow:visible" id="marker1177" orient="auto" refX="0" refY="0"><path style="fill-rule:evenodd;stroke:#000;stroke-width:1pt" id="path1175" d="M 0.0,0.0 L 5.0,-5.0 L -12.5,0.0 L 5.0,5.0 L 0.0,0.0 z" transform="scale(0.8) translate(12.5,0)"/></marker><marker style="overflow:visible" id="Arrow1Lstart" orient="auto" refX="0" refY="0"><path style="fill-rule:evenodd;stroke:#000;stroke-width:1pt" id="path905" d="M 0.0,0.0 L 5.0,-5.0 L -12.5,0.0 L 5.0,5.0 L 0.0,0.0 z" transform="scale(0.8) translate(12.5,0)"/></marker></defs><metadata id="metadata5"/><g id="layer1"><path style="fill:#b9bbbe;fill-opacity:1;stroke:#333;stroke-width:0;stroke-linecap:round;stroke-linejoin:round" id="rect867" d="m 24.621585,1.8962931 a 8.05084,8.05084 0 0 0 -8.05084,8.0508401 V 23.093693 a 8.05084,8.05084 0 0 0 8.05084,8.05084 h 0.756863 a 8.05084,8.05084 0 0 0 8.05084,-8.05084 V 9.9471332 A 8.05084,8.05084 0 0 0 25.378448,1.8962931 Z M 8.2012264,22.746712 c -7.647e-4,0.06571 -0.00527,0.131207 -0.00527,0.197075 -2e-6,8.390562 6.2192606,15.382594 14.2787096,16.609048 v 8.550872 h 5.051692 v -8.550872 c 8.060403,-1.225214 14.277664,-8.217472 14.277662,-16.609048 0,-0.06589 -0.0045,-0.13139 -0.0053,-0.197075 h -5.239271 c 0.0011,0.06558 0.0053,0.131228 0.0053,0.197075 0,6.417704 -5.145941,11.563645 -11.563647,11.563645 -6.417707,0 -11.563648,-5.145941 -11.563648,-11.563645 0,-0.06585 0.0041,-0.131512 0.0053,-0.197075 z"/></g></svg>