<svg xmlns="http://www.w3.org/2000/svg" xmlns:svg="http://www.w3.org/2000/svg" id="svg8" width="50" height="50" version="1.1" viewBox="0 0 13.229 13.229"><metadata id="metadata5"/><g id="layer1"><path style="color:#000;font-style:normal;font-variant:normal;font-weight:400;font-stretch:normal;font-size:medium;line-height:normal;font-family:sans-serif;font-variant-ligatures:normal;font-variant-position:normal;font-variant-caps:normal;font-variant-numeric:normal;font-variant-alternates:normal;font-variant-east-asian:normal;font-feature-settings:normal;font-variation-settings:normal;text-indent:0;text-align:start;text-decoration:none;text-decoration-line:none;text-decoration-style:solid;text-decoration-color:#000;letter-spacing:normal;word-spacing:normal;text-transform:none;writing-mode:lr-tb;direction:ltr;text-orientation:mixed;dominant-baseline:auto;baseline-shift:baseline;text-anchor:start;white-space:normal;shape-padding:0;shape-margin:0;inline-size:0;clip-rule:nonzero;display:inline;overflow:visible;visibility:visible;isolation:auto;mix-blend-mode:normal;color-interpolation:sRGB;color-interpolation-filters:linearRGB;solid-color:#000;solid-opacity:1;vector-effect:none;fill:#333;fill-opacity:1;fill-rule:nonzero;stroke:none;stroke-width:3.51383;stroke-linecap:round;stroke-linejoin:miter;stroke-miterlimit:4;stroke-dasharray:none;stroke-dashoffset:0;stroke-opacity:1;color-rendering:auto;image-rendering:auto;shape-rendering:auto;text-rendering:auto;enable-background:accumulate;stop-color:#000" id="path862" d="M 16.607422 2.2421875 L 15.140625 13.804688 L 3.4863281 13.798828 L 2.9121094 18.296875 L 14.568359 18.302734 L 12.871094 31.683594 L 1.2070312 31.677734 L 0.6328125 36.181641 L 12.298828 36.1875 L 10.828125 47.757812 L 15.367188 47.757812 L 16.837891 36.1875 L 30.324219 36.193359 L 28.855469 47.757812 L 33.390625 47.757812 L 34.859375 36.195312 L 46.513672 36.201172 L 47.087891 31.701172 L 35.429688 31.695312 L 35.761719 29.078125 L 31.226562 29.078125 L 30.894531 31.693359 L 17.410156 31.685547 L 19.109375 18.304688 L 29.078125 18.310547 L 29.078125 13.810547 L 19.679688 13.806641 L 21.148438 2.2421875 L 16.607422 2.2421875 z" transform="scale(0.26458333)"/><path style="fill:#1a1a1a;stroke:#333;stroke-width:0;stroke-linecap:round" id="rect853" d="M 39.101562 1.5214844 C 35.625227 1.5214849 32.775391 4.3635072 32.775391 7.8398438 L 32.775391 11.679688 L 31.654297 11.679688 L 31.654297 23.839844 L 47.515625 23.839844 L 47.515625 11.679688 L 46.394531 11.679688 L 46.394531 7.8398438 C 46.394531 4.3635061 43.544697 1.5214836 40.068359 1.5214844 L 39.101562 1.5214844 z M 39.101562 4.1640625 L 40.068359 4.1640625 C 42.114872 4.1640621 43.744141 5.7933324 43.744141 7.8398438 L 43.744141 11.679688 L 35.425781 11.679688 L 35.425781 7.8398438 C 35.425781 5.7933328 37.055052 4.1640629 39.101562 4.1640625 z" transform="scale(0.26458333)"/></g></svg>