<svg xmlns="http://www.w3.org/2000/svg" xmlns:svg="http://www.w3.org/2000/svg" id="svg8" width="50mm" height="50mm" version="1.1" viewBox="0 0 50 50"><metadata id="metadata5"/><g id="layer1"><path style="fill:#333;stroke:#000;stroke-width:0;stroke-linecap:butt;stroke-linejoin:miter;stroke-miterlimit:4;stroke-dasharray:none;stroke-opacity:1" id="path846" d="m 38.897137,4.2484967 v 6.4858423 h -6.485843 v 4.076238 h 6.485843 v 6.485842 h 4.076239 v -6.485842 h 6.484663 V 10.734339 H 42.973376 V 4.2484967 Z M 18.45687,14.916885 c -3.814781,0.02866 -6.892158,3.129247 -6.892167,6.944138 -5.35e-4,3.835554 3.108586,6.945205 6.94414,6.945322 3.835554,-1.17e-4 6.944672,-3.109766 6.944137,-6.945322 -1.16e-4,-3.835094 -3.109045,-6.944024 -6.944137,-6.944138 -0.01737,-6.6e-5 -0.03465,-6.6e-5 -0.05198,0 z m -0.237415,16.530569 c -15.4959457,0 -17.67749319,14.304049 -17.67749319,14.304049 H 36.116644 c 0,0 -2.401246,-14.304049 -17.897189,-14.304049 z"/></g></svg>