<svg xmlns="http://www.w3.org/2000/svg" xmlns:svg="http://www.w3.org/2000/svg" id="svg8" width="50mm" height="50mm" version="1.1" viewBox="0 0 50 50"><defs id="defs2"><marker style="overflow:visible" id="marker1193" orient="auto" refX="0" refY="0"><path style="fill-rule:evenodd;stroke:#000;stroke-width:1pt" id="path1191" d="M 0.0,0.0 L 5.0,-5.0 L -12.5,0.0 L 5.0,5.0 L 0.0,0.0 z" transform="scale(0.8) translate(12.5,0)"/></marker><marker style="overflow:visible" id="marker1177" orient="auto" refX="0" refY="0"><path style="fill-rule:evenodd;stroke:#000;stroke-width:1pt" id="path1175" d="M 0.0,0.0 L 5.0,-5.0 L -12.5,0.0 L 5.0,5.0 L 0.0,0.0 z" transform="scale(0.8) translate(12.5,0)"/></marker><marker style="overflow:visible" id="Arrow1Lstart" orient="auto" refX="0" refY="0"><path style="fill-rule:evenodd;stroke:#000;stroke-width:1pt" id="path905" d="M 0.0,0.0 L 5.0,-5.0 L -12.5,0.0 L 5.0,5.0 L 0.0,0.0 z" transform="scale(0.8) translate(12.5,0)"/></marker></defs><metadata id="metadata5"/><g id="layer1"><path style="fill:#858c95;fill-opacity:1;stroke:#333;stroke-width:0;stroke-linecap:round;stroke-linejoin:round;stroke-miterlimit:4;stroke-dasharray:none" id="path1235" d="M 94.488281 7.8300781 C 46.628303 7.8301384 7.8301384 46.628303 7.8300781 94.488281 C 7.8301405 142.34826 46.628305 181.14642 94.488281 181.14648 C 142.34826 181.14642 181.14642 142.34826 181.14648 94.488281 C 181.14642 46.628305 142.34826 7.8301405 94.488281 7.8300781 z M 94.488281 49.457031 C 119.35872 49.457065 139.5195 69.617841 139.51953 94.488281 C 139.5195 119.35872 119.35872 139.5195 94.488281 139.51953 C 69.617841 139.5195 49.457065 119.35872 49.457031 94.488281 C 49.457061 69.617837 69.617837 49.457061 94.488281 49.457031 z" transform="scale(0.26458333)"/></g></svg>