<svg xmlns="http://www.w3.org/2000/svg" xmlns:svg="http://www.w3.org/2000/svg" id="svg8" width="20" height="20" version="1.1" viewBox="0 0 5.292 5.292"><metadata id="metadata5"/><g id="layer1"><path style="color:#000;font-style:normal;font-variant:normal;font-weight:400;font-stretch:normal;font-size:medium;line-height:normal;font-family:sans-serif;font-variant-ligatures:normal;font-variant-position:normal;font-variant-caps:normal;font-variant-numeric:normal;font-variant-alternates:normal;font-variant-east-asian:normal;font-feature-settings:normal;font-variation-settings:normal;text-indent:0;text-align:start;text-decoration:none;text-decoration-line:none;text-decoration-style:solid;text-decoration-color:#000;letter-spacing:normal;word-spacing:normal;text-transform:none;writing-mode:lr-tb;direction:ltr;text-orientation:mixed;dominant-baseline:auto;baseline-shift:baseline;text-anchor:start;white-space:normal;shape-padding:0;shape-margin:0;inline-size:0;clip-rule:nonzero;display:inline;overflow:visible;visibility:visible;isolation:auto;mix-blend-mode:normal;color-interpolation:sRGB;color-interpolation-filters:linearRGB;solid-color:#000;solid-opacity:1;vector-effect:none;fill:#e5e6e7;fill-opacity:1;fill-rule:evenodd;stroke:none;stroke-width:.95622;stroke-linecap:butt;stroke-linejoin:miter;stroke-miterlimit:4;stroke-dasharray:none;stroke-dashoffset:0;stroke-opacity:1;color-rendering:auto;image-rendering:auto;shape-rendering:auto;text-rendering:auto;enable-background:accumulate;stop-color:#000" id="path835" d="M 7.8183594 0.65039062 C 5.9909929 0.65039062 4.1586435 1.3607769 2.7675781 2.7539062 C 1.3764748 4.1470366 0.6640625 5.9798431 0.6640625 7.8105469 C 0.6640625 9.6412495 1.3692097 11.432621 2.7675781 12.867188 C 4.1559495 14.257615 5.9851952 14.933594 7.8183594 14.933594 C 9.244905 14.933594 10.663287 14.527191 11.839844 13.685547 L 12.166016 13.449219 L 17.857422 19.148438 L 19.134766 17.871094 L 13.443359 12.171875 L 13.671875 11.847656 C 14.517035 10.628832 14.925781 9.2011575 14.925781 7.8105469 C 14.925781 5.9740601 14.247744 4.144338 12.859375 2.7539062 C 11.468307 1.3607742 9.645764 0.65039062 7.8183594 0.65039062 z M 7.8183594 2.4433594 C 9.1692691 2.4433593 10.55491 2.9607744 11.589844 4.0371094 C 12.61541 5.0681392 13.132812 6.4285071 13.132812 7.8105469 C 13.132813 9.1631476 12.613118 10.517844 11.589844 11.582031 L 11.582031 11.589844 C 10.547339 12.626073 9.1694479 13.140625 7.8183594 13.140625 C 6.4672709 13.140625 5.079614 12.626073 4.0449219 11.589844 L 4.0371094 11.582031 C 3.0138588 10.517844 2.4941406 9.1631479 2.4941406 7.8105469 C 2.4941406 6.4252408 3.0145266 5.0631771 4.0449219 4.03125 C 5.0790906 2.9600764 6.4706343 2.4433594 7.8183594 2.4433594 z" transform="scale(0.26458333)"/></g></svg>