<svg xmlns="http://www.w3.org/2000/svg" xmlns:svg="http://www.w3.org/2000/svg" id="svg8" width="50mm" height="50mm" version="1.1" viewBox="0 0 50 50"><defs id="defs2"><marker style="overflow:visible" id="marker1193" orient="auto" refX="0" refY="0"><path style="fill-rule:evenodd;stroke:#000;stroke-width:1pt" id="path1191" d="M 0.0,0.0 L 5.0,-5.0 L -12.5,0.0 L 5.0,5.0 L 0.0,0.0 z" transform="scale(0.8) translate(12.5,0)"/></marker><marker style="overflow:visible" id="marker1177" orient="auto" refX="0" refY="0"><path style="fill-rule:evenodd;stroke:#000;stroke-width:1pt" id="path1175" d="M 0.0,0.0 L 5.0,-5.0 L -12.5,0.0 L 5.0,5.0 L 0.0,0.0 z" transform="scale(0.8) translate(12.5,0)"/></marker><marker style="overflow:visible" id="Arrow1Lstart" orient="auto" refX="0" refY="0"><path style="fill-rule:evenodd;stroke:#000;stroke-width:1pt" id="path905" d="M 0.0,0.0 L 5.0,-5.0 L -12.5,0.0 L 5.0,5.0 L 0.0,0.0 z" transform="scale(0.8) translate(12.5,0)"/></marker></defs><metadata id="metadata5"/><g id="layer1"><path id="path895" d="m 25.001524,2.4500312 c -12.46528,0 -22.62766,10.1582088 -22.62766,22.6234888 0,0.203864 0.010292,8.948372 0.015741,9.15097 v 8.520047 c 0,2.653965 2.1514675,4.805432 4.8054343,4.805432 h 5.5802637 c 2.653965,0 4.805433,-2.151467 4.805433,-4.805432 V 34.13585 c 0,-2.653965 -2.151468,-4.805432 -4.805433,-4.805432 H 7.6236461 c -0.0011,-1.681511 -0.0042,-4.201079 -0.0042,-4.256898 0,-9.629658 7.7524859,-17.3779805 17.3821439,-17.3779805 9.629664,0 17.37798,7.7483225 17.37798,17.3779805 0,0.05582 -0.0032,2.575387 -0.0042,4.256898 h -5.141231 c -2.653966,0 -4.805432,2.151467 -4.805432,4.805432 v 8.608687 c 0,2.653965 2.151466,4.805432 4.805432,4.805432 h 5.580265 c 2.653965,0 4.805432,-2.151467 4.805432,-4.805432 V 34.13585 c -2.04e-4,-0.05178 -0.0011,-0.103605 -0.0032,-0.155388 0.0038,-4.305304 0.0095,-8.790235 0.0095,-8.906944 C 47.625791,12.60824 37.466541,2.4500312 25.001255,2.4500312 Z" style="color:#000;font-style:normal;font-variant:normal;font-weight:400;font-stretch:normal;font-size:medium;line-height:normal;font-family:sans-serif;font-variant-ligatures:normal;font-variant-position:normal;font-variant-caps:normal;font-variant-numeric:normal;font-variant-alternates:normal;font-variant-east-asian:normal;font-feature-settings:normal;font-variation-settings:normal;text-indent:0;text-align:start;text-decoration:none;text-decoration-line:none;text-decoration-style:solid;text-decoration-color:#000;letter-spacing:normal;word-spacing:normal;text-transform:none;writing-mode:lr-tb;direction:ltr;text-orientation:mixed;dominant-baseline:auto;baseline-shift:baseline;text-anchor:start;white-space:normal;shape-padding:0;shape-margin:0;inline-size:0;clip-rule:nonzero;display:inline;overflow:visible;visibility:visible;opacity:1;isolation:auto;mix-blend-mode:normal;color-interpolation:sRGB;color-interpolation-filters:linearRGB;solid-color:#000;solid-opacity:1;vector-effect:none;fill:gray;fill-opacity:1;fill-rule:nonzero;stroke:none;stroke-width:5.24688;stroke-linecap:round;stroke-linejoin:round;stroke-miterlimit:4;stroke-dasharray:none;stroke-dashoffset:0;stroke-opacity:1;color-rendering:auto;image-rendering:auto;shape-rendering:auto;text-rendering:auto;enable-background:accumulate;stop-color:#000;stop-opacity:1"/></g></svg>