<svg xmlns="http://www.w3.org/2000/svg" xmlns:svg="http://www.w3.org/2000/svg" id="svg8" width="50" height="50" version="1.1" viewBox="0 0 13.229 13.229"><metadata id="metadata5"/><g id="layer1"><path style="fill:#4d4d4d;fill-opacity:1;stroke:#00f;stroke-width:0;stroke-linecap:round;stroke-miterlimit:4;stroke-dasharray:none" id="path989" d="M 6.6142725,0.35365514 A 6.2607708,6.2607708 0 0 0 0.35396598,6.6145834 6.2607708,6.2607708 0 0 0 6.6142725,12.875512 6.2607708,6.2607708 0 0 0 12.875201,6.6145834 6.2607708,6.2607708 0 0 0 6.6142725,0.35365514 Z m -0.00435,2.64550636 c 1.302348,-3e-7 2.3713189,1.0664841 2.3713189,2.3688318 0,1.0806801 -0.7368766,1.9986779 -1.7315477,2.2805449 V 8.4505835 H 5.9713928 V 7.6485382 6.7383099 6.6494009 h 0.5477534 c 0.030246,0.00223 0.059855,0.00622 0.090774,0.00622 0.021344,0 0.041101,-0.00523 0.062174,-0.00622 h 0.00746 v -6.217e-4 c 0.6833391,-0.036303 1.21799,-0.5875423 1.21799,-1.2807859 0,-0.7171442 -0.5704804,-1.2851378 -1.2876249,-1.2851378 -0.6761594,0 -1.213377,0.5069425 -1.2733249,1.1657636 H 4.2473058 C 4.310457,4.0014684 5.3478529,2.9991615 6.6099203,2.9991615 Z M 5.9713928,8.9156457 H 7.2496915 V 10.230006 H 5.9713928 Z"/></g></svg>