<svg xmlns="http://www.w3.org/2000/svg" xmlns:svg="http://www.w3.org/2000/svg" id="svg8" width="50mm" height="50mm" version="1.1" viewBox="0 0 50 50"><metadata id="metadata5"/><g id="layer1"><path style="color:#000;font-style:normal;font-variant:normal;font-weight:400;font-stretch:normal;font-size:medium;line-height:normal;font-family:sans-serif;font-variant-ligatures:normal;font-variant-position:normal;font-variant-caps:normal;font-variant-numeric:normal;font-variant-alternates:normal;font-variant-east-asian:normal;font-feature-settings:normal;font-variation-settings:normal;text-indent:0;text-align:start;text-decoration:none;text-decoration-line:none;text-decoration-style:solid;text-decoration-color:#000;letter-spacing:normal;word-spacing:normal;text-transform:none;writing-mode:lr-tb;direction:ltr;text-orientation:mixed;dominant-baseline:auto;baseline-shift:baseline;text-anchor:start;white-space:normal;shape-padding:0;shape-margin:0;inline-size:0;clip-rule:nonzero;display:inline;overflow:visible;visibility:visible;opacity:1;isolation:auto;mix-blend-mode:normal;color-interpolation:sRGB;color-interpolation-filters:linearRGB;solid-color:#000;solid-opacity:1;vector-effect:none;fill:#ff73fa;fill-opacity:1;fill-rule:nonzero;stroke:none;stroke-width:16.9897;stroke-linecap:round;stroke-linejoin:miter;stroke-miterlimit:4;stroke-dasharray:none;stroke-dashoffset:0;stroke-opacity:1;color-rendering:auto;image-rendering:auto;shape-rendering:auto;text-rendering:auto;enable-background:accumulate;stop-color:#000;stop-opacity:1" id="path884" d="M 94.982422 13.037109 L 88.925781 19.076172 L 40.195312 67.671875 L 40.195312 80.140625 L 40.195312 108.83594 L 40.195312 121.30273 L 94.982422 175.9375 L 148.78125 121.25391 L 148.78125 108.83594 L 148.78125 80.140625 L 148.78125 67.720703 L 94.982422 13.037109 z M 94.867188 37.144531 L 131.7832 74.675781 L 131.7832 80.140625 L 131.7832 108.83594 L 131.7832 114.30078 L 94.867188 151.82812 L 57.181641 114.25195 L 57.181641 108.83594 L 57.181641 80.140625 L 57.181641 74.724609 L 94.867188 37.144531 z M 94.724609 56.375 L 69.332031 81.693359 L 69.332031 86.605469 L 69.332031 102.36523 L 69.332031 107.27734 L 94.724609 132.5957 L 119.63281 107.27734 L 119.63281 102.36523 L 119.63281 86.605469 L 119.63281 81.693359 L 94.724609 56.375 z" transform="scale(0.26458333)"/></g></svg>