<svg xmlns="http://www.w3.org/2000/svg" xmlns:svg="http://www.w3.org/2000/svg" id="svg8" width="50mm" height="50mm" version="1.1" viewBox="0 0 50 50"><metadata id="metadata5"/><g id="layer1"><path style="fill:#b3b3b3;stroke:red;stroke-width:0;stroke-linecap:round" id="path833" d="m 7.5823133,18.970394 a 6.0296193,6.0296193 0 0 0 -5.9806378,6.029631 6.0296193,6.0296193 0 0 0 6.0296312,6.029631 6.0296193,6.0296193 0 0 0 6.0296313,-6.029631 6.0296193,6.0296193 0 0 0 -6.0296313,-6.029631 6.0296193,6.0296193 0 0 0 -0.048993,0 z m 17.3689807,0 a 6.0296193,6.0296193 0 0 0 -5.980638,6.029631 6.0296193,6.0296193 0 0 0 6.029632,6.029631 6.0296193,6.0296193 0 0 0 6.02963,-6.029631 6.0296193,6.0296193 0 0 0 -6.02963,-6.029631 6.0296193,6.0296193 0 0 0 -0.04899,0 z m 17.36898,0 a 6.0296193,6.0296193 0 0 0 -5.981215,6.029631 6.0296193,6.0296193 0 0 0 6.029632,6.029631 6.0296193,6.0296193 0 0 0 6.029634,-6.029631 6.0296193,6.0296193 0 0 0 -6.029634,-6.029631 6.0296193,6.0296193 0 0 0 -0.04842,0 z"/></g></svg>