<svg xmlns="http://www.w3.org/2000/svg" xmlns:svg="http://www.w3.org/2000/svg" id="svg8" width="50" height="50" version="1.1" viewBox="0 0 13.229 13.229"><metadata id="metadata5"/><g id="layer1"><path style="color:#000;font-style:normal;font-variant:normal;font-weight:400;font-stretch:normal;font-size:medium;line-height:normal;font-family:sans-serif;font-variant-ligatures:normal;font-variant-position:normal;font-variant-caps:normal;font-variant-numeric:normal;font-variant-alternates:normal;font-variant-east-asian:normal;font-feature-settings:normal;font-variation-settings:normal;text-indent:0;text-align:start;text-decoration:none;text-decoration-line:none;text-decoration-style:solid;text-decoration-color:#000;letter-spacing:normal;word-spacing:normal;text-transform:none;writing-mode:lr-tb;direction:ltr;text-orientation:mixed;dominant-baseline:auto;baseline-shift:baseline;text-anchor:start;white-space:normal;shape-padding:0;shape-margin:0;inline-size:0;clip-rule:nonzero;display:inline;overflow:visible;visibility:visible;opacity:1;isolation:auto;mix-blend-mode:normal;color-interpolation:sRGB;color-interpolation-filters:linearRGB;solid-color:#000;solid-opacity:1;vector-effect:none;fill:#333;fill-opacity:1;fill-rule:nonzero;stroke:none;stroke-width:.899999;stroke-linecap:round;stroke-linejoin:miter;stroke-miterlimit:4;stroke-dasharray:none;stroke-dashoffset:0;stroke-opacity:1;color-rendering:auto;image-rendering:auto;shape-rendering:auto;text-rendering:auto;enable-background:accumulate;stop-color:#000;stop-opacity:1" id="path844" d="M 0.66603774,0.09303678 C 0.37884444,0.10005039 0.14970451,0.33492452 0.14979014,0.62220344 0.12813677,4.285285 0.13842134,8.4852271 0.13842134,12.155867 c -3.4e-7,0.535449 0.4427859,0.980302 0.97823486,0.980302 H 12.114435 c 0.535449,0 0.978751,-0.444853 0.978751,-0.980302 V 1.6872547 c 0,-0.5354489 -0.443302,-0.97875162 -0.978751,-0.97875162 H 11.43644 v -0.0862996 c 0,-0.29225081 -0.236916,-0.52916685 -0.529167,-0.52916666 H 0.67895684 c -0.00431,-5.257e-5 -0.00861,-5.257e-5 -0.0129191,-4e-8 z M 11.43644,1.6087065 h 0.677995 c 0.04905,0 0.0801,0.029496 0.0801,0.078548 V 12.155867 c 0,0.04905 -0.03104,0.0801 -0.0801,0.0801 H 1.1166562 c -0.049053,0 -0.078031,-0.03105 -0.078031,-0.0801 v -0.721403 h 9.8686478 c 0.292251,0 0.529167,-0.236916 0.529167,-0.529167 z M 8.7792375,3.2685537 9.6220802,4.249889 4.1728005,8.9188548 2.0737037,6.086986 3.1129167,5.317524 4.3846738,7.0321481 Z"/></g></svg>