<svg xmlns="http://www.w3.org/2000/svg" xmlns:svg="http://www.w3.org/2000/svg" id="svg8" width="50" height="50" version="1.1" viewBox="0 0 13.229 13.229"><metadata id="metadata5"/><g id="layer1"><path style="color:#000;font-style:normal;font-variant:normal;font-weight:400;font-stretch:normal;font-size:medium;line-height:normal;font-family:sans-serif;font-variant-ligatures:normal;font-variant-position:normal;font-variant-caps:normal;font-variant-numeric:normal;font-variant-alternates:normal;font-variant-east-asian:normal;font-feature-settings:normal;font-variation-settings:normal;text-indent:0;text-align:start;text-decoration:none;text-decoration-line:none;text-decoration-style:solid;text-decoration-color:#000;letter-spacing:normal;word-spacing:normal;text-transform:none;writing-mode:lr-tb;direction:ltr;text-orientation:mixed;dominant-baseline:auto;baseline-shift:baseline;text-anchor:start;white-space:normal;shape-padding:0;shape-margin:0;inline-size:0;clip-rule:nonzero;display:inline;overflow:visible;visibility:visible;isolation:auto;mix-blend-mode:normal;color-interpolation:sRGB;color-interpolation-filters:linearRGB;solid-color:#000;solid-opacity:1;vector-effect:none;fill:#333;fill-opacity:1;fill-rule:nonzero;stroke:none;stroke-width:.9297;stroke-linecap:round;stroke-linejoin:miter;stroke-miterlimit:4;stroke-dasharray:none;stroke-dashoffset:0;stroke-opacity:1;color-rendering:auto;image-rendering:auto;shape-rendering:auto;text-rendering:auto;enable-background:accumulate;stop-color:#000" id="path862" d="M 4.3941213,0.5934476 4.0057896,3.6523079 0.922534,3.6508144 0.77068628,4.841201 3.8544397,4.8426945 3.4053687,8.3829869 0.31912599,8.3814934 0.16727827,9.5728757 3.2540188,9.5743692 2.8651892,12.635719 h 1.2008416 l 0.3888298,-3.060852 3.5681726,0.00149 -0.388332,3.059358 H 8.8345471 L 9.2233769,9.5768586 12.306632,9.5783521 12.45848,8.3874676 9.374229,8.3859741 9.8242957,4.8456818 12.910041,4.8471753 13.061888,3.6562908 9.9756455,3.6547973 10.364475,0.5934476 H 9.1641314 L 8.7753016,3.6542995 5.2071292,3.6528058 5.595461,0.5934476 Z m 0.661658,4.2497448 3.5681724,0.00199 -0.4495686,3.5402924 -3.5681726,-0.00199 z"/></g></svg>