<svg xmlns="http://www.w3.org/2000/svg" xmlns:xlink="http://www.w3.org/1999/xlink" width="33.273" height="26.672" version="1.1" viewBox="0 0 47 37" xml:space="preserve" style="shape-rendering:geometricPrecision;text-rendering:geometricPrecision;image-rendering:optimizeQuality;fill-rule:evenodd;clip-rule:evenodd"><defs><style type="text/css">.fil0{fill:#e6e7e8}</style></defs><g id="Camada_x0020_1"><metadata id="CorelCorpID_0Corel-Layer"/><path d="M14 0l30 0c2,0 3,1 3,2l0 33c0,1 -1,2 -3,2l-30 0c-1,0 -2,0 -2,-1l-12 -16c0,-1 0,-2 0,-3l12 -16c0,-1 1,-1 2,-1zm20 9l3 4 -6 6 6 6 -3 3 -7 -6 -6 6 -3 -3 6 -6 -6 -6 3 -4 6 7 7 -7z" class="fil0"/></g></svg>