<svg xmlns="http://www.w3.org/2000/svg" xmlns:svg="http://www.w3.org/2000/svg" id="svg8" width="50" height="50" version="1.1" viewBox="0 0 13.229 13.229"><metadata id="metadata5"/><g id="layer1"><path style="fill:#333;fill-opacity:1;stroke:#333;stroke-width:0;stroke-linecap:round;stroke-linejoin:round;stroke-miterlimit:4;stroke-dasharray:none" id="rect882" d="m 6.5372925,1.7134273 -3.03708,2.9019832 H 1.302291 v 3.999645 h 2.1979215 l 3.03708,2.9006835 H 7.0646898 V 1.7134273 Z M 8.258478,2.5486891 v 1.0249173 c 1.5144537,0.2671615 2.661667,1.5693677 2.661667,3.1630837 0,1.5937579 -1.1471528,2.8938225 -2.661667,3.1604858 V 10.92599 c 2.066121,-0.276925 3.668398,-2.0492847 3.668398,-4.1892999 0,-2.1400126 -1.602281,-3.9112529 -3.668398,-4.188001 z m 0,2.2083135 v 1.0833723 c 0.2981667,0.1859797 0.4962205,0.5133027 0.4962205,0.8963152 0,0.3828875 -0.1981961,0.7075721 -0.4962205,0.8924184 V 8.7124808 C 9.1219862,8.4658115 9.7614296,7.6766699 9.7614296,6.7366901 c 0,-0.9399978 -0.6394181,-1.7324189 -1.5029516,-1.9796875 z"/></g></svg>