<svg xmlns="http://www.w3.org/2000/svg" xmlns:svg="http://www.w3.org/2000/svg" id="svg8" width="50mm" height="50mm" version="1.1" viewBox="0 0 50 50"><metadata id="metadata5"/><g id="layer1"><path style="fill:#b9bbbe;fill-opacity:1;stroke:red;stroke-width:0;stroke-linecap:round;stroke-miterlimit:4;stroke-dasharray:none" id="rect955" d="m 30.009766,12.697266 c -9.562233,0 -17.314454,7.752226 -17.314454,17.314453 V 158.96484 c 0,9.56223 7.752221,17.31446 17.314454,17.31446 h 72.529294 13.04492 43.38282 c 9.56223,0 17.31445,-7.75223 17.31445,-17.31446 v -52.37109 h -0.006 V 89.001953 h -55.71094 c -12.49925,0 -22.781247,-10.280036 -22.781247,-22.779297 v -53.52539 z m 81.359374,0 v 53.52539 c 0,5.154089 4.04122,9.183594 9.19531,9.183594 h 55.71094 V 64.638672 L 124.33398,12.697266 Z m -70.0647,93.203284 c 4.94871,-8e-5 8.960452,4.01166 8.960377,8.96037 7.5e-5,4.94871 -4.011667,8.96045 -8.960377,8.96037 -4.94871,8e-5 -8.960452,-4.01166 -8.960376,-8.96037 -7.6e-5,-4.94871 4.011666,-8.96045 8.960376,-8.96037 z m 106.36573,0 c 4.94871,-8e-5 8.96046,4.01166 8.96038,8.96037 8e-5,4.94871 -4.01167,8.96045 -8.96038,8.96037 -4.94871,8e-5 -8.96045,-4.01166 -8.96038,-8.96037 -7e-5,-4.94871 4.01167,-8.96045 8.96038,-8.96037 z m -89.713962,3.37133 h 15.272587 c 2.826603,13.05712 13.684473,15.71165 21.261092,15.71165 7.576613,0 18.430843,-2.65453 21.255923,-15.71165 h 15.27431 c -3.00811,19.38883 -17.7695,30.79827 -36.530233,30.79827 -18.760736,0 -33.524399,-11.40944 -36.533679,-30.79827 z" transform="scale(0.26458333)"/></g></svg>